<svg xmlns="http://www.w3.org/2000/svg" width="102" height="8" viewBox="0 0 102 8" fill="none">
  <path d="M0 7.88889H1.277V2.44444H1.33351L3.78581 7.88889H4.73508L7.19868 2.44444H7.25519V7.88889H8.53219V0H7.11957L4.26044 6.27778L1.41261 0H0V7.88889Z" fill="#3A3A3A"/>
  <path d="M15.2026 2.11111H13.9595V5.31111C13.9595 6.32222 13.3606 6.88889 12.513 6.88889C11.6429 6.88889 11.0778 6.32222 11.0778 5.31111V2.11111H9.82341V5.51111C9.82341 7.25556 10.8631 8 12.0723 8C13.0216 8 13.6431 7.55556 13.9595 7.02222V7.88889H15.2026V2.11111Z" fill="#3A3A3A"/>
  <path d="M16.5015 7.88889H17.7446V4.68889C17.7446 3.67778 18.3436 3.11111 19.1912 3.11111C20.0613 3.11111 20.6264 3.67778 20.6264 4.68889V7.88889H21.8808V4.48889C21.8808 2.74444 20.8411 2 19.6319 2C18.6826 2 18.0611 2.44444 17.7446 2.97778V0H16.5015V7.88889Z" fill="#3A3A3A"/>
  <path d="M25.745 8C26.8186 8 27.5644 7.42222 27.7791 6.96667H27.813V7.88889H29.0561V2.11111H27.813V3.03333H27.7791C27.5644 2.57778 26.8186 2 25.745 2C24.355 2 22.8971 3.01111 22.8971 5C22.8971 6.98889 24.355 8 25.745 8ZM24.1289 5C24.1289 3.75556 25.0443 3.11111 25.9823 3.11111C26.9316 3.11111 27.8469 3.75556 27.8469 5C27.8469 6.24444 26.9316 6.88889 25.9823 6.88889C25.0443 6.88889 24.1289 6.24444 24.1289 5Z" fill="#3A3A3A"/>
  <path d="M34.1628 7.88889H35.4172V4.57778C35.4172 3.64444 35.9258 3.11111 36.7281 3.11111C37.5079 3.11111 37.9712 3.64444 37.9712 4.57778V7.88889H39.2256V4.51111C39.2256 2.76667 38.3216 2 37.0898 2C36.084 2 35.4398 2.48889 35.1234 3.05556C34.7618 2.33333 34.1063 2 33.3379 2C32.4564 2 31.9027 2.42222 31.5975 2.93333V2.11111H30.3544V7.88889H31.5975V4.57778C31.5975 3.64444 32.1174 3.11111 32.9197 3.11111C33.6995 3.11111 34.1628 3.64444 34.1628 4.57778V7.88889Z" fill="#3A3A3A"/>
  <path d="M44.3173 7.88889H45.5717V4.57778C45.5717 3.64444 46.0803 3.11111 46.8826 3.11111C47.6624 3.11111 48.1257 3.64444 48.1257 4.57778V7.88889H49.3801V4.51111C49.3801 2.76667 48.4761 2 47.2443 2C46.2385 2 45.5943 2.48889 45.2779 3.05556C44.9163 2.33333 44.2608 2 43.4924 2C42.6109 2 42.0571 2.42222 41.752 2.93333V2.11111H40.5089V7.88889H41.752V4.57778C41.752 3.64444 42.2719 3.11111 43.0742 3.11111C43.854 3.11111 44.3173 3.64444 44.3173 4.57778V7.88889Z" fill="#3A3A3A"/>
  <path d="M53.2287 8C54.3023 8 55.0482 7.42222 55.2629 6.96667H55.2968V7.88889H56.5399V2.11111H55.2968V3.03333H55.2629C55.0482 2.57778 54.3023 2 53.2287 2C51.8387 2 50.3809 3.01111 50.3809 5C50.3809 6.98889 51.8387 8 53.2287 8ZM51.6127 5C51.6127 3.75556 52.528 3.11111 53.466 3.11111C54.4153 3.11111 55.3307 3.75556 55.3307 5C55.3307 6.24444 54.4153 6.88889 53.466 6.88889C52.528 6.88889 51.6127 6.24444 51.6127 5Z" fill="#3A3A3A"/>
  <path d="M63.7146 7.88889V0H62.4715V3.03333H62.4376C62.2229 2.57778 61.477 2 60.4035 2C59.0135 2 57.5556 3.01111 57.5556 5C57.5556 6.98889 59.0135 8 60.4035 8C61.477 8 62.2229 7.42222 62.4376 6.96667H62.4715V7.88889H63.7146ZM58.7874 5C58.7874 3.75556 59.7028 3.11111 60.6408 3.11111C61.5901 3.11111 62.5054 3.75556 62.5054 5C62.5054 6.24444 61.5901 6.88889 60.6408 6.88889C59.7028 6.88889 58.7874 6.24444 58.7874 5Z" fill="#3A3A3A"/>
  <path d="M67.4422 7.88889H68.7192V5.57778L69.6458 4.5L72.3694 7.88889H73.7933L70.4143 3.61111L73.5221 0H72.0755L68.7192 3.92222V0H67.4422V7.88889Z" fill="#3A3A3A"/>
  <path d="M77.1124 7.88889H78.3894V2.07778H78.4459L82.5029 7.88889H83.7912V0H82.5142V5.81111H82.4577L78.3894 0H77.1124V7.88889Z" fill="#3A3A3A"/>
  <path d="M85.0928 7.88889H86.3359V2.11111H85.0928V7.88889ZM85.0928 1.1H86.3359V0H85.0928V1.1Z" fill="#3A3A3A"/>
  <path d="M90.1977 8C91.2713 8 92.0171 7.42222 92.2319 6.96667H92.2658V7.88889H93.5089V2.11111H92.2658V3.03333H92.2319C92.0171 2.57778 91.2713 2 90.1977 2C88.8077 2 87.3499 3.01111 87.3499 5C87.3499 6.98889 88.8077 8 90.1977 8ZM88.5817 5C88.5817 3.75556 89.497 3.11111 90.435 3.11111C91.3843 3.11111 92.2997 3.75556 92.2997 5C92.2997 6.24444 91.3843 6.88889 90.435 6.88889C89.497 6.88889 88.5817 6.24444 88.5817 5Z" fill="#3A3A3A"/>
  <path d="M94.4116 7.88889H99.6552V6.8H96.4345L99.8474 2.11111H94.7393V3.18889H97.8245L94.4116 7.88889Z" fill="#3A3A3A"/>
  <path d="M100.757 7.88889H102V2.11111H100.757V7.88889ZM100.757 1.1H102V0H100.757V1.1Z" fill="#3A3A3A"/>
</svg>